<?xml version="1.0" encoding="utf-8"?>
<!-- Generator: Adobe Illustrator 19.0.0, SVG Export Plug-In . SVG Version: 6.00 Build 0)  -->
<svg version="1.1" id="Layer_1" xmlns="http://www.w3.org/2000/svg" xmlns:xlink="http://www.w3.org/1999/xlink" x="0px" y="0px"
	 viewBox="0 0 180 60" style="enable-background:new 0 0 180 60;" xml:space="preserve">
<style type="text/css">
	.st0{opacity:0;}
	.st1{fill:url(#XMLID_37_);}
	.st2{fill:url(#XMLID_38_);}
	.st3{fill:url(#XMLID_39_);}
	.st4{fill:url(#XMLID_40_);}
	.st5{fill:url(#XMLID_42_);}
	.st6{fill:url(#XMLID_46_);}
	.st7{fill:url(#XMLID_47_);}
	.st8{fill:url(#XMLID_48_);}
	.st9{fill:url(#XMLID_50_);}
	.st10{fill:url(#XMLID_51_);}
</style>
<rect id="XMLID_33_" x="0" class="st0" width="180" height="60"/>
<linearGradient id="XMLID_37_" gradientUnits="userSpaceOnUse" x1="108.8306" y1="46.9954" x2="108.8306" y2="18.9122">
	<stop  offset="0" style="stop-color:#503C92"/>
	<stop  offset="1" style="stop-color:#922772"/>
</linearGradient>
<path id="XMLID_52_" class="st1" d="M116.9,47l-13.4-17.5v17.2h-4.7V18.9h2.4l13.1,16.7V18.9h4.7V47H116.9z"/>
<g id="XMLID_8_">
	<linearGradient id="XMLID_38_" gradientUnits="userSpaceOnUse" x1="5.4358" y1="39.2609" x2="42.4508" y2="39.2609">
		<stop  offset="0" style="stop-color:#E34B5A"/>
		<stop  offset="1" style="stop-color:#B23166"/>
	</linearGradient>
	<path id="XMLID_3_" class="st2" d="M38,24.9L38,24.9l-3.8-3.3l0,0c2.1,1.8,2.1,4.8,0,6.6l-7,6.1L5.4,53l0,0c6,5.2,15.6,5.2,21.6,0
		L38,43.6l0,0C43.9,38.4,43.9,30.1,38,24.9z"/>
</g>
<g id="XMLID_2_">
	<linearGradient id="XMLID_39_" gradientUnits="userSpaceOnUse" x1="7.7005" y1="20.702" x2="44.7154" y2="20.702">
		<stop  offset="0" style="stop-color:#503C92"/>
		<stop  offset="1" style="stop-color:#922772"/>
	</linearGradient>
	<path id="XMLID_5_" class="st3" d="M12.2,35.1L12.2,35.1l3.8,3.3l0,0c-2.1-1.8-2.1-4.8,0-6.6l7-6.1L44.7,6.9l0,0
		c-6-5.2-15.6-5.2-21.6,0l-10.9,9.5l0,0C6.2,21.5,6.2,29.9,12.2,35.1z"/>
</g>
<linearGradient id="XMLID_40_" gradientUnits="userSpaceOnUse" x1="58.9621" y1="46.9173" x2="58.9621" y2="19.0887">
	<stop  offset="0" style="stop-color:#503C92"/>
	<stop  offset="1" style="stop-color:#922772"/>
</linearGradient>
<path id="XMLID_34_" class="st4" d="M56.6,40.6c0.6,0.6,1.4,0.9,2.3,0.9s1.6-0.3,2.2-0.9c0.6-0.6,0.9-1.4,0.9-2.3
	c0-0.9-0.3-1.6-0.9-2.2c-0.4-0.4-1.3-1.1-2.7-2c-1.9-1-3.3-2-4.1-2.8c-1.4-1.4-2.1-3.1-2.1-5.1c0-2,0.7-3.7,2.1-5.1
	c1.4-1.4,3.1-2.1,5.1-2.1c2,0,3.6,0.7,5,2c0.9,0.9,1.5,2,1.8,3.2L61,25.7c-0.1-0.4-0.2-0.7-0.4-0.8c-0.3-0.3-0.7-0.5-1.2-0.5
	c-0.5,0-1,0.2-1.3,0.6c-0.4,0.4-0.6,0.8-0.6,1.3c0,0.5,0.2,1,0.5,1.3c0.3,0.3,1.1,0.8,2.2,1.6c2.1,1.2,3.7,2.2,4.6,3.2
	c1.7,1.7,2.5,3.7,2.5,6c0,2.4-0.8,4.4-2.5,6.1c-1.7,1.7-3.7,2.5-6,2.5c-2.3,0-4.4-0.8-6-2.5c-1.1-1.1-1.9-2.6-2.3-4.3l5.3-1.1
	C56,39.8,56.3,40.3,56.6,40.6z"/>
<linearGradient id="XMLID_42_" gradientUnits="userSpaceOnUse" x1="144.9601" y1="46.5417" x2="144.9601" y2="18.8385">
	<stop  offset="0" style="stop-color:#B23166"/>
	<stop  offset="1" style="stop-color:#E34B5A"/>
</linearGradient>
<path id="XMLID_44_" class="st5" d="M147.7,18.8v27.7h-5.6V18.8H147.7z"/>
<linearGradient id="XMLID_46_" gradientUnits="userSpaceOnUse" x1="81.5501" y1="47.0199" x2="81.5501" y2="18.7894">
	<stop  offset="0" style="stop-color:#503C92"/>
	<stop  offset="1" style="stop-color:#922772"/>
</linearGradient>
<path id="XMLID_49_" class="st6" d="M89.8,37.6c-0.7,0.8-1.1,1.3-1.3,1.5c-1.7,1.7-3.8,2.6-6.3,2.6c-1.9,0-3.3-0.3-4.3-0.8
	c-2.5-1-3.6-2.9-4.1-4.5c-0.3-0.7-0.5-1.9-0.5-3.5c0-2.4,0.9-4.5,2.6-6.3c1.7-1.7,3.8-2.6,6.2-2.6c2,0,3.3,0.2,3.9,0.7l-3,10.3
	l7.9-7.9l2.6-2.6c-0.8-0.9-1.2-1.4-1.4-1.6c-0.4-0.4-0.8-0.8-1.2-1.1c-2.5-2-5.4-3-8.8-3c-3.9,0-7.2,1.4-10,4.1
	c-2.8,2.8-4.1,6.1-4.1,10c0,3.9,1.4,7.2,4.1,10c2.8,2.8,6.1,4.1,10,4.1c3.9,0,7.2-1.4,10-4.1c0.6-0.6,1.5-1.7,2.7-3.4L89.8,37.6z"/>
<linearGradient id="XMLID_47_" gradientUnits="userSpaceOnUse" x1="157.2567" y1="46.764" x2="157.2567" y2="10.4041">
	<stop  offset="0" style="stop-color:#B23166"/>
	<stop  offset="1" style="stop-color:#E34B5A"/>
</linearGradient>
<polygon id="XMLID_41_" class="st7" points="157.5,20.3 157.5,10.4 152.2,10.4 152.2,46.8 157.5,46.8 157.5,25.6 162.3,25.6 
	162.3,20.3 "/>
<linearGradient id="XMLID_48_" gradientUnits="userSpaceOnUse" x1="132.1068" y1="46.5959" x2="132.1068" y2="18.8542">
	<stop  offset="0" style="stop-color:#503C92"/>
	<stop  offset="1" style="stop-color:#922772"/>
</linearGradient>
<path id="XMLID_43_" class="st8" d="M125.3,41.4c2.3-0.1,4.2-0.9,5.9-2.5c1.7-1.7,2.5-3.7,2.5-6.1c0-2.4-0.8-4.5-2.5-6.2
	c-1.6-1.6-3.6-2.5-5.9-2.5v-5.2c3.7,0.1,6.9,1.4,9.5,4.1c2.7,2.7,4.1,6,4.1,9.8c0,3.8-1.4,7.1-4.1,9.8c-2.7,2.7-5.8,4-9.5,4.1V41.4z
	"/>
<linearGradient id="XMLID_50_" gradientUnits="userSpaceOnUse" x1="128.6173" y1="39.2209" x2="128.6173" y2="25.9167">
	<stop  offset="0" style="stop-color:#E34B5A"/>
	<stop  offset="1" style="stop-color:#B23166"/>
</linearGradient>
<path id="XMLID_4_" class="st9" d="M125.4,36.7c1.1,0,2-0.4,2.8-1.2c0.8-0.8,1.2-1.8,1.2-2.9c0-1.2-0.4-2.1-1.2-2.9
	c-0.8-0.8-1.7-1.2-2.8-1.2v-2.5c1.8,0,3.3,0.7,4.6,1.9c1.3,1.3,2,2.9,2,4.7c0,1.8-0.7,3.4-2,4.7c-1.3,1.3-2.8,1.9-4.6,1.9V36.7z"/>
<linearGradient id="XMLID_51_" gradientUnits="userSpaceOnUse" x1="126.6933" y1="35.524" x2="126.6933" y2="30.0302">
	<stop  offset="0" style="stop-color:#922772"/>
	<stop  offset="1" style="stop-color:#503C92"/>
</linearGradient>
<path id="XMLID_7_" class="st10" d="M127.2,30.8c-0.5-0.5-1.2-0.8-1.9-0.8v0l0,0l0,0.8c0,0,0,0,0,0l0,0.3l0,4.5
	c0.7,0,1.4-0.3,1.9-0.8c0.5-0.5,0.8-1.2,0.8-1.9C128,32,127.8,31.4,127.2,30.8z"/>
</svg>
