<?xml version="1.0" encoding="utf-8"?>
<!-- Generator: Adobe Illustrator 19.0.0, SVG Export Plug-In . SVG Version: 6.00 Build 0)  -->
<svg version="1.1" id="Layer_1" xmlns="http://www.w3.org/2000/svg" xmlns:xlink="http://www.w3.org/1999/xlink" x="0px" y="0px"
	 viewBox="0 0 180 60" style="enable-background:new 0 0 180 60;" xml:space="preserve">
<style type="text/css">
	.st0{fill:#422974;}
	.st1{opacity:0;}
</style>
<path id="XMLID_41_" class="st0" d="M157.8,16.1V8.6c0-0.7-0.5-1.2-1.2-1.2h-2.9c-0.7,0-1.2,0.5-1.2,1.2v34c0,0.7,0.5,1.2,1.2,1.2
	h2.9c0.7,0,1.2-0.5,1.2-1.2V23.8c0-0.7,0.5-1.2,1.2-1.2h2.4c0.7,0,1.2-0.5,1.2-1.2v-2.9c0-0.7-0.5-1.2-1.2-1.2H159
	C158.4,17.3,157.8,16.8,157.8,16.1z"/>
<path id="XMLID_85_" class="st0" d="M141.5,17v8.2c0,0.3,0.1,0.6,0.3,0.8l2.8,2.8c0.5,0.5,0.5,1.2,0,1.7l-2.8,2.8
	c-0.2,0.2-0.3,0.5-0.3,0.8v8.1c0,0.7,0.5,1.2,1.2,1.2h3.2c0.7,0,1.2-0.5,1.2-1.2V17c0-0.7-0.5-1.2-1.2-1.2h-3.2
	C142,15.8,141.5,16.4,141.5,17z"/>
<path id="XMLID_84_" class="st0" d="M117.6,26v7.7c0,1.8,2.2,2.8,3.5,1.5l3.9-3.9c0.8-0.8,0.8-2.1,0-2.9l-3.9-3.9
	C119.8,23.2,117.6,24.1,117.6,26z"/>
<rect id="XMLID_33_" class="st1" width="180" height="60"/>
<path id="XMLID_34_" class="st0" d="M52.9,37.6c0.7,0.7,1.5,1,2.5,0.9c0.7,0,1.3-0.3,1.8-0.7c0.8-0.6,1.1-1.5,1.1-2.5
	c0-0.9-0.3-1.6-0.9-2.2c-0.4-0.4-1.3-1.1-2.7-2c0,0,0,0,0,0c-1.9-1-3.3-2-4.1-2.8c-1.4-1.4-2.1-3-2.1-4.9c0-2,0.8-4,2.3-5.5
	c1.4-1.3,3-2,4.9-2c2,0,3.6,0.7,5,2c0.8,0.8,1.4,1.7,1.7,2.7c0.1,0.3-0.1,0.5-0.3,0.6l-4.7,1.4c-0.1-0.4-0.2-0.6-0.3-0.8
	c0,0-0.1-0.1-0.1-0.1c-0.3-0.3-0.7-0.4-1.2-0.4c-0.5,0-1,0.2-1.3,0.6c-0.4,0.4-0.6,0.8-0.6,1.3c0,0.5,0.2,1,0.5,1.3
	c0.3,0.3,1.1,0.8,2.2,1.6c0,0,0,0,0,0c2.1,1.2,3.7,2.2,4.6,3.2c1.7,1.7,2.5,3.7,2.5,6c0,2.4-0.8,4.4-2.5,6.1c-1.7,1.7-3.7,2.5-6,2.5
	c-2.3,0-4.4-0.8-6-2.5c-1-1-1.7-2.3-2.1-3.8c-0.1-0.3,0.1-0.6,0.4-0.6l4.3-0.9c0.3-0.1,0.5,0.1,0.6,0.3C52.4,37,52.6,37.4,52.9,37.6
	z"/>
<path id="XMLID_82_" class="st0" d="M126.2,15.7h-5.7c-1.1,0-1.6,1.3-0.8,2l11.1,11.1c0.5,0.5,0.5,1.2,0,1.7l-13.2,13.2V44h8.3
	c0.3,0,0.6-0.1,0.8-0.3l13.1-13.1c0.5-0.5,0.5-1.2,0-1.7L127,16.1C126.8,15.9,126.5,15.7,126.2,15.7z"/>
<path id="XMLID_44_" class="st0" d="M3.4,23.2v13.5c0,3.2,3.9,4.8,6.1,2.5l6.7-6.7c1.4-1.4,1.4-3.7,0-5.1l-6.7-6.7
	C7.3,18.4,3.4,20,3.4,23.2z"/>
<path id="XMLID_7_" class="st0" d="M15,5.4h-10c-1.9,0-2.8,2.2-1.5,3.6L23,28.3c0.8,0.8,0.8,2.1,0,2.9l-23,23v0.5h14.5
	c0.6,0,1.1-0.2,1.5-0.6l22.8-22.8c0.8-0.8,0.8-2.1,0-2.9L16.5,6C16.1,5.6,15.6,5.4,15,5.4z"/>
<path id="XMLID_3_" class="st0" d="M154.2,129.9h-10c-1.9,0-2.8,2.2-1.5,3.6l19.4,19.4c0.8,0.8,0.8,2.1,0,2.9l-23,23v0.5h14.5
	c0.6,0,1.1-0.2,1.5-0.6l22.8-22.8c0.8-0.8,0.8-2.1,0-2.9l-22.3-22.3C155.3,130.1,154.8,129.9,154.2,129.9z"/>
<path id="XMLID_43_" class="st0" d="M108.5,16.8v13.6c0,0.8-1,1.2-1.5,0.6L93.2,15.8L93,15.9v27.7l0,0l9.1-9.9
	c0.3-0.4,0.9-0.4,1.3,0l9.8,10.3l0,0V16.8c0-0.5-0.4-0.9-0.9-0.9h-3C108.9,15.9,108.5,16.3,108.5,16.8z"/>
<path id="XMLID_5_" class="st0" d="M90.8,36.3c-1-0.4-3.7-1.3-4.5-1.6c-0.1,0-0.3,0-0.4,0.1c-0.6,0.7-1,1.1-1.2,1.4
	c-1.7,1.7-3.8,2.6-6.3,2.6c-1.9,0-3.3-0.3-4.3-0.8c-2.5-1-3.6-2.9-4.1-4.5c-0.3-0.6-0.4-1.7-0.5-3.1c0-2.5,0.9-4.9,2.6-6.6
	c1.7-1.7,3.8-2.6,6.2-2.6c1.7,0,2.9,0.2,3.6,0.5c0.2,0.1,0.2,0.3,0.1,0.5l-3.8,5.8c-0.3,1.1-0.4,2.8,2.3,1.8l6.5-5.5c0,0,0,0,0,0
	l2.4-2.4c0.1-0.1,0.1-0.3,0-0.4c-0.7-0.7-1.1-1.2-1.2-1.3c-0.4-0.4-0.8-0.8-1.2-1.1c-2.5-2-5.4-3-8.8-3c-3.5,0-6.5,1.1-9.1,3.4
	c-3.4,2.9-5.2,7.4-4.9,11.9c0.2,3.4,1.6,6.4,4.1,8.9c2.8,2.8,6.1,4.1,10,4.1c3.9,0,7.2-1.4,10-4.1c0.5-0.5,1.3-1.6,2.5-3.1
	C91.1,36.6,91,36.4,90.8,36.3z"/>
<path id="XMLID_4_" class="st0" d="M-77.6-10l6.2,0.2c0.8,0,1.3-1,0.7-1.6l-1-1c-0.8-0.8-0.7-2.2,0.1-3l8.8-8.2
	c1.4-1.3,0.5-3.6-1.4-3.6l-2.9-0.1c-0.6,0-1.1,0.2-1.5,0.6l-11.9,11.1c-0.8,0.8-0.9,2.1-0.1,3l2.3,2.4C-78.1-10.1-77.9-10-77.6-10z"
	/>
<path id="XMLID_2_" class="st0" d="M-66.1-11.2l-6.5-0.2c-0.7,0-1.1,0.9-0.6,1.4l1.2,1.3c0.7,0.8,0.7,2.1-0.1,2.8l-9.1,8.5
	c-1.3,1.2-0.5,3.4,1.3,3.4l3.2,0.1c0.5,0,1-0.2,1.4-0.5l12-11.2c0.8-0.7,0.8-2,0.1-2.8l-2.4-2.5C-65.7-11.1-65.9-11.1-66.1-11.2z"/>
</svg>
